<svg xmlns="http://www.w3.org/2000/svg"
	width="100%" height="100%"
	viewBox="0 0 500 540">
	<path
		id="Head"
		fill="#1a1a1b"
		stroke="lightblue"
		stroke-width="10"
		d="
			M
				200,87.5
			C
				150,80
				200,15
				250,15
				300,15
				350,80
				300,87.5
		" />
	<path
		id="Body"
		fill="#1d1d1e"
		stroke="lightblue"
		stroke-width="12"
		d="
			M
				250,525
			C
				0,530
				25,75
				250,80
				475,75
				500,530
				250,525
		" />
	<path
		id="K"
		fill="none"
		stroke="lightblue"
		stroke-width="15"
		d="
			M
				200,200
			Q
				220,290
				200,400

			M
				210,290
			Q
				270,255
				300,200

			M
				210,290
			Q
				280,320
				300,400
				
		"/>
	<path
		id="Legs"
		fill="none"
		stroke="lightblue"
		stroke-width="10"
		d="
			M
				100,175
			L
				50,150
			M
				75,265
			L
				10,260
			M
				75,375
			L
				10,400
			M
				125,470
			L
				75,510

			M
				400,175
			L
				450,150
			M
				425,265
			L
				490,260
			M
				425,375
			L
				485,400
			M
				375,470
			L
				425,510
				" />
</svg>
